<svg id="Ebene_1" data-name="Ebene 1" xmlns="http://www.w3.org/2000/svg" viewBox="0 0 271.81 260.19"><defs><style>.cls-1{fill:#161669;}.cls-2{fill:#3698fa;}</style></defs><title>bc_bildmarke_RGB</title><path class="cls-1" d="M197.1,271.86H36.69c-16.66,0-30.21-13.13-30.21-29.27V90.5C6.48,74.36,20,61.23,36.69,61.23h67.47v25H40.41c-5.2,0-9.42,3.81-9.42,8.49V238.92c0,4.68,4.22,8.49,9.42,8.49H193.16c5.19,0,9.42-3.81,9.42-8.49V185.71h24.73v56.88C227.31,258.73,213.76,271.86,197.1,271.86Z" transform="translate(-6.48 -11.67)"/><path class="cls-2" d="M244.89,176.65h-8.57V152.07h6.48c6.95,0,10.81-5.67,10.81-12.62V48.69A12.63,12.63,0,0,0,241,36.08H150.48c-7,0-12.61,3.7-12.61,10.65v5.32H113.09v-7a33.43,33.43,0,0,1,33.4-33.39h98.4a33.44,33.44,0,0,1,33.4,33.39v98.2A33.44,33.44,0,0,1,244.89,176.65Z" transform="translate(-6.48 -11.67)"/><path class="cls-2" d="M137.93,86.28h49.49c9.14,0,15.47,8.36,15.47,17.5l-.15,48.3c5.21,5.3,19.56,19.52,24.55,24.59V93.16a32,32,0,0,0-32-32H113.11C118.12,66.25,137.93,86.28,137.93,86.28Z" transform="translate(-6.48 -11.67)"/><path class="cls-1" d="M202.74,152.07H155c-9.14,0-17.05-7.44-17.05-16.57V86.28c-5.22-5.3-19.83-20-24.82-25.12V144c0,17.64,14.35,32.66,32,32.66h82.19C222.28,171.58,207.86,157.26,202.74,152.07Z" transform="translate(-6.48 -11.67)"/></svg>