<?xml version="1.0" encoding="UTF-8" standalone="no"?>
<!-- Created with Inkscape (http://www.inkscape.org/) -->

<svg
   version="1.1"
   id="svg1"
   width="892.04932"
   height="118.04946"
   viewBox="0 0 892.04931 118.04946"
   xmlns="http://www.w3.org/2000/svg"
   xmlns:svg="http://www.w3.org/2000/svg">
  <defs
     id="defs1" />
  <g
     id="g1"
     transform="translate(0,-0.00386628)">
    <g
       id="group-R5">
      <path
         id="path2"
         d="M 644.82,5.21094 H 102.176 C 45.8359,5.21094 0,49.6289 0,104.207 v 514.496 c 0,54.578 45.8359,98.996 102.176,98.996 H 330.418 V 632.988 H 114.773 c -17.5777,0 -31.8785,-12.883 -31.8785,-28.695 V 116.609 c 0,-15.808 14.3008,-28.6949 31.8785,-28.6949 h 516.711 c 17.575,0 31.875,12.8869 31.875,28.6949 v 180.028 h 83.637 V 104.207 C 746.996,49.6289 701.16,5.21094 644.82,5.21094"
         style="fill:#252f7f;fill-opacity:1;fill-rule:nonzero;stroke:none"
         transform="matrix(0.13333333,0,0,-0.13333333,0,118.05333)" />
      <path
         id="path3"
         d="M 806.473,327.254 H 777.48 v 83.176 h 21.93 c 23.524,0 36.582,19.156 36.582,42.679 v 307 c 0,23.528 -19.152,42.68 -42.676,42.68 H 487.105 c -23.527,0 -42.656,-12.527 -42.656,-36.051 v -17.984 h -83.801 v 23.637 c 0,62.293 50.665,112.98 112.954,112.98 h 332.871 c 62.285,0 112.976,-50.687 112.976,-112.98 V 440.234 c 0,-62.293 -50.691,-112.98 -112.976,-112.98"
         style="fill:#5a8fd2;fill-opacity:1;fill-rule:nonzero;stroke:none"
         transform="matrix(0.13333333,0,0,-0.13333333,0,118.05333)" />
      <path
         id="path4"
         d="m 444.656,632.969 167.403,0.019 c 30.918,0 52.343,-28.277 52.343,-59.172 L 663.883,410.43 c 17.648,-17.93 66.18,-66.039 83.07,-83.207 l -0.035,282.472 c 0,59.68 -48.563,108.239 -108.258,108.239 H 360.691 c 16.965,-17.215 83.965,-84.965 83.965,-84.965"
         style="fill:#5a8fd2;fill-opacity:1;fill-rule:nonzero;stroke:none"
         transform="matrix(0.13333333,0,0,-0.13333333,0,118.05333)" />
      <path
         id="path5"
         d="m 663.883,410.43 h -161.59 c -30.91,0 -57.66,25.148 -57.66,56.047 l 0.023,166.492 c -17.648,17.933 -67.078,67.797 -83.965,84.965 l -0.039,-280.207 c 0,-59.676 48.567,-110.504 108.258,-110.504 h 278.043 c -16.965,17.215 -65.746,65.625 -83.07,83.207"
         style="fill:#252f7f;fill-opacity:1;fill-rule:nonzero;stroke:none"
         transform="matrix(0.13333333,0,0,-0.13333333,0,118.05333)" />
      <path
         id="path6"
         d="m 1592.44,201.137 c 0,-71.227 -34.45,-102.9847 -111.71,-102.9847 H 1326.41 V 296.375 h 151.42 c 76.05,0 114.61,-32.039 114.61,-95.238 z m -266.03,191.457 v 192.41 h 144.63 c 73.84,0 103.96,-25.906 103.96,-89.43 0,-70.258 -31.49,-102.98 -99.12,-102.98 z m 281.42,-41.492 c 53.16,31.324 74.03,76.57 74.03,159.007 0,114.829 -69.62,173.055 -206.94,173.055 H 1222.44 V 0 h 262.16 c 145.13,0 215.68,63.5781 215.68,194.359 0,81.852 -27.74,129.114 -92.45,156.743"
         style="fill:#252f7f;fill-opacity:1;fill-rule:nonzero;stroke:none"
         transform="matrix(0.13333333,0,0,-0.13333333,0,118.05333)" />
      <path
         id="path7"
         d="m 2080.66,94.7852 c -14.02,-5.8204 -65.89,-4.5899 -109.81,-4.5899 -75.39,0 -81.72,36.0317 -81.72,147.4887 V 482.773 H 1789.6 V 236.762 c 0,-163.719 9.99,-236.176062 151.46,-236.176062 47.3,0 139.58,1.066402 139.58,1.066402 h 99.54 l 0.01,481.12066 h -99.53 V 94.7852"
         style="fill:#252f7f;fill-opacity:1;fill-rule:nonzero;stroke:none"
         transform="matrix(0.13333333,0,0,-0.13333333,0,118.05333)" />
      <path
         id="path8"
         d="m 2487.66,293.953 c -88.83,14.371 -102.25,24.891 -102.25,53.602 0,38.015 24.5,53.523 84.55,53.523 57.14,0 164.02,-5.637 165.34,-5.777 h 5.49 l 2.1,87.726 -4.44,0.825 c -0.62,0.113 -104.16,5.836 -174.1,5.836 -49.84,0 -92.34,-10.961 -122.91,-31.696 -36.86,-24.988 -55.55,-62.765 -55.55,-112.273 0,-47.938 13.27,-78.824 43.03,-100.149 29.24,-20.945 73.45,-31.543 130.86,-41.011 83.74,-12.918 98.46,-21.211 98.46,-55.422 0,-44.137 -24.64,-59.0315 -97.64,-59.0315 l -59.45,-0.0391 C 2354.09,90.0391 2300.72,90 2298.81,90.0781 l -3.42,0.4492 V 0.742188 l 2.46,-0.46875 c 0.33,-0.0625 1.05,-0.101563 8.24,-0.101563 7.83,0 23.34,0.042969 54.35,0.144531 34.48,0.121094 76.58,0.257813 107.65,0.257813 127.63,0 189.68,49.496081 189.68,151.323781 0,89.59 -38.17,121.461 -170.11,142.055"
         style="fill:#252f7f;fill-opacity:1;fill-rule:nonzero;stroke:none"
         transform="matrix(0.13333333,0,0,-0.13333333,0,118.05333)" />
      <path
         id="path9"
         d="m 4121.8,293.953 c -88.84,14.371 -102.25,24.891 -102.25,53.602 0,38.015 24.48,53.523 84.54,53.523 57.15,0 164.01,-5.637 165.35,-5.777 h 5.48 l 2.11,87.726 -4.45,0.825 c -0.61,0.113 -103.88,5.836 -174.1,5.836 -49.84,0 -92.34,-10.961 -122.91,-31.696 -36.85,-24.988 -55.55,-62.765 -55.55,-112.273 0,-47.938 13.28,-78.824 43.04,-100.149 29.25,-20.945 73.45,-31.543 130.87,-41.011 83.73,-12.918 98.44,-21.211 98.44,-55.422 0,-44.137 -24.64,-59.0315 -97.63,-59.0315 l -59.46,-0.0391 C 3988.21,90.0391 3934.85,90 3932.96,90.0781 l -3.43,0.4492 V 0.742188 l 2.45,-0.46875 c 0.34,-0.0625 1.01,-0.101563 8.15,-0.101563 7.79,0 23.3,0.042969 54.44,0.144531 34.48,0.121094 76.59,0.257813 107.66,0.257813 127.62,0 189.66,49.496081 189.66,151.323781 0,89.59 -38.16,121.461 -170.09,142.055"
         style="fill:#252f7f;fill-opacity:1;fill-rule:nonzero;stroke:none"
         transform="matrix(0.13333333,0,0,-0.13333333,0,118.05333)" />
      <path
         id="path10"
         d="m 4555.72,293.965 c -88.81,14.359 -102.22,24.879 -102.22,53.59 0,38.015 24.49,53.523 84.53,53.523 57.15,0 164.01,-5.637 165.35,-5.777 h 5.49 l 2.1,87.715 -4.44,0.836 c -0.64,0.113 -104.43,5.836 -174.11,5.836 -49.83,0 -92.33,-10.961 -122.91,-31.696 -36.84,-24.988 -55.54,-62.765 -55.54,-112.273 0,-47.938 13.28,-78.824 43.03,-100.149 29.23,-20.945 73.44,-31.543 130.86,-41.011 83.74,-12.918 98.46,-21.211 98.46,-55.422 0,-44.137 -24.63,-59.0315 -97.65,-59.0315 l -59.43,-0.0391 C 4422.18,90.0391 4368.79,90 4366.89,90.0781 l -3.43,0.4492 V 0.742188 l 2.48,-0.46875 c 0.32,-0.0625 1.03,-0.101563 8.19,-0.101563 7.82,0 23.33,0.042969 54.39,0.144531 34.49,0.121094 76.57,0.257813 107.64,0.257813 127.65,0 189.69,49.496081 189.69,151.323781 0,89.602 -38.17,121.465 -170.13,142.067"
         style="fill:#252f7f;fill-opacity:1;fill-rule:nonzero;stroke:none"
         transform="matrix(0.13333333,0,0,-0.13333333,0,118.05333)" />
      <path
         id="path11"
         d="m 2749.21,0 h 99.51 v 477.621 h -99.51 V 0"
         style="fill:#252f7f;fill-opacity:1;fill-rule:nonzero;stroke:none"
         transform="matrix(0.13333333,0,0,-0.13333333,0,118.05333)" />
      <path
         id="path12"
         d="m 2749.21,557.793 h 99.51 V 666.68 h -99.51 V 557.793"
         style="fill:#252f7f;fill-opacity:1;fill-rule:nonzero;stroke:none"
         transform="matrix(0.13333333,0,0,-0.13333333,0,118.05333)" />
      <path
         id="path13"
         d="M 3181.44,474.809 C 3133.89,474.215 2953.39,472 2953.39,472 V 0 h 98.58 v 385.371 c 22.14,0.684 69.71,-1.133 114.49,-0.113 78.18,1.773 81.74,-38.871 81.74,-146.848 V 0 h 99.51 v 228.781 c 0,158.078 -11.43,247.965 -166.27,246.028"
         style="fill:#252f7f;fill-opacity:1;fill-rule:nonzero;stroke:none"
         transform="matrix(0.13333333,0,0,-0.13333333,0,118.05333)" />
      <path
         id="path14"
         d="m 3638.56,400.52 c 70.99,0 99.33,-33.543 100.42,-119.438 h -205.42 c 2.1,82.57 34.58,119.438 105,119.438 z m 0,87.398 c -135.78,0 -204.63,-83.055 -204.63,-246.863 0,-167.6566 58.68,-239.57844 196.23,-240.469062 l 88.05,-0.042969 c 29.8,-0.03125 49.26,-0.039063 61.91,-0.039063 20.26,0 23.14,0.027344 23.29,0.082032 h 4.65 l 8.7,84.933562 -0.17,5.5469 -5.47,-0.457 c -1.15,-0.0235 -26.2,0.0039 -57.94,0.0312 -33.22,0.0313 -75.25,0.0782 -110.86,0.0782 -75.15,0 -106.6,32.5312 -107.9,112.1292 h 297.13 l 6.09,68.406 c 0,147.816 -63.26,216.664 -199.08,216.664"
         style="fill:#252f7f;fill-opacity:1;fill-rule:nonzero;stroke:none"
         transform="matrix(0.13333333,0,0,-0.13333333,0,118.05333)" />
      <path
         id="path15"
         d="m 6491.31,400.52 c 70.97,0 99.31,-33.543 100.41,-119.438 H 6386.3 c 2.1,82.57 34.58,119.438 105.01,119.438 z m 199.06,-129.266 c 0,147.816 -63.25,216.664 -199.06,216.664 -135.79,0 -204.64,-83.055 -204.64,-246.863 0,-167.6566 58.68,-239.57844 196.22,-240.469062 l 88.06,-0.042969 c 29.8,-0.03125 49.25,-0.039063 61.91,-0.039063 20.25,0 23.14,0.027344 23.28,0.082032 h 4.65 l 8.71,84.933562 -0.17,5.5469 -5.47,-0.457 c -1.14,-0.0235 -26.18,0.0039 -57.94,0.0312 -33.23,0.0313 -75.26,0.0782 -110.85,0.0782 -75.17,0 -106.61,32.5312 -107.91,112.1292 h 297.13 l 6.08,68.406"
         style="fill:#252f7f;fill-opacity:1;fill-rule:nonzero;stroke:none"
         transform="matrix(0.13333333,0,0,-0.13333333,0,118.05333)" />
      <path
         id="path16"
         d="m 5153.74,99.9414 -67.25,0.0391 c -64.55,0 -103.11,17.1715 -125.01,55.6915 -19.77,34.746 -27.84,88.109 -27.84,184.199 0,167.188 21.79,241.774 150.99,241.774 58.89,0 162.88,-0.211 165.78,-0.34 l 5.9,-0.879 3.07,89.226 0.08,2.473 -4.22,1.023 c -1.43,0.332 -98.86,8.012 -181.87,8.012 -94.86,0 -156.74,-27.047 -194.76,-85.105 -34.67,-52.942 -50.14,-131.95 -50.14,-256.184 0,-214.961 40.07,-339.417875 244.9,-339.417875 35.11,0 78.45,-0.113281 114.23,-0.199219 31.96,-0.082031 49.24,-0.121093 58.66,-0.121093 10.31,0 11.19,0.046875 11.57,0.121093 l 4.21,0.902344 2.35,98.82425 -5.84,-0.0117 c -2.12,-0.0899 -56.67,-0.043 -104.81,-0.0274"
         style="fill:#252f7f;fill-opacity:1;fill-rule:nonzero;stroke:none"
         transform="matrix(0.13333333,0,0,-0.13333333,0,118.05333)" />
      <path
         id="path17"
         d="m 5629.53,249.27 c 0,-105.559 -16.84,-159.1606 -108.89,-159.1606 -75.01,0 -110.71,23.8166 -110.71,159.1606 0,113.503 27.93,151.808 110.71,151.808 78.36,0 108.89,-42.562 108.89,-151.808 z m -108.89,240.418 c -148.03,0 -211.2,-71.907 -211.2,-240.418 0,-176.6333 61.19,-248.684062 211.2,-248.684062 148.7,0 209.35,72.050762 209.35,248.684062 0,164.019 -66.52,240.418 -209.35,240.418"
         style="fill:#252f7f;fill-opacity:1;fill-rule:nonzero;stroke:none"
         transform="matrix(0.13333333,0,0,-0.13333333,0,118.05333)" />
      <path
         id="path18"
         d="m 6097.65,400.418 1.36,-0.176 c 2.4,-0.297 4.51,-0.558 6.28,-0.773 V 95.1055 c -30.35,-2.7774 -66.07,-4.7422 -114.39,-3.7617 -46.87,0.7656 -90.24,19.8832 -90.24,153.3082 0,111.508 30.46,156.996 105.13,156.996 30.5,0 66.17,-0.335 91.86,-1.23 z m 7.64,87.375 c -1.79,0.242 -3.89,0.684 -6.28,0.867 -25.89,2.02 -68.13,1.899 -98.84,1.899 -138.29,0 -199.97,-75.559 -199.97,-244.989 0,-171.7184 53.37,-244.984062 178.44,-244.984062 50.82,0 126.65,0 126.65,0 h 98.63 V 665.734 h -98.63 V 487.793"
         style="fill:#252f7f;fill-opacity:1;fill-rule:nonzero;stroke:none"
         transform="matrix(0.13333333,0,0,-0.13333333,0,118.05333)" />
    </g>
  </g>
</svg>
