<?xml version="1.0" encoding="UTF-8"?>
<svg id="Layer_1" xmlns="http://www.w3.org/2000/svg" version="1.1" viewBox="0 0 126.4 61">
  <!-- Generator: Adobe Illustrator 29.7.0, SVG Export Plug-In . SVG Version: 2.1.1 Build 138)  -->
  <defs>
    <style>
      .st0 {
        fill: #fc0;
      }

      .st1 {
        fill: red;
      }
    </style>
  </defs>
  <g id="Name">
    <path d="M44.7,2.8c0,.3,0,.5-.1.7s-.2.4-.3.6c-.1.2-.3.3-.4.4-.2,0-.3.2-.5.2h0c.2,0,.4.1.6.2.2.1.3.2.5.4.1.2.2.4.3.6,0,.2.1.5.1.7s0,.6-.2.9-.3.5-.5.7c-.2.2-.5.4-.9.5s-.8.2-1.3.2h-1.7V.7h1.6c.5,0,.9,0,1.2.1.3,0,.6.2.9.4s.4.4.5.7c0,.3.1.5.1.9ZM43.6,2.9c0-.4-.1-.7-.4-.9s-.7-.4-1.3-.4h-.5v2.8h.5c.6,0,1-.1,1.3-.4s.4-.6.4-1.1ZM43.8,6.7c0-.4-.1-.8-.4-1.1-.3-.3-.7-.4-1.2-.4h-.7v2.9h.6c.6,0,1.1-.1,1.3-.4.3-.2.4-.6.4-1.1ZM50.2,9h-.9v-.6h0s0,.1-.2.2c0,0-.2.2-.3.3-.1,0-.3.2-.4.2s-.4,0-.6,0-.5,0-.7-.1c-.2,0-.4-.2-.5-.4s-.3-.4-.3-.6c0-.3-.1-.6-.1-1v-3.7h1v3.7c0,.5,0,.8.2,1,.2.2.4.3.7.3s.5,0,.7-.2c.2-.1.3-.3.5-.4V3.2h1s0,5.7,0,5.7ZM54.8,9v-3.7c0-.5,0-.8-.2-1-.2-.2-.4-.3-.7-.3s-.5,0-.7.2-.3.3-.5.4v4.4h-1V3.2h.9v.6h0s0-.1.2-.2c0,0,.2-.2.3-.3s.3-.2.5-.2.4,0,.6,0,.5,0,.7.1c.2,0,.4.2.5.4s.3.4.3.6c0,.3.1.6.1,1v3.7h-1ZM56.9,6.2c0-.6,0-1.1.2-1.5s.3-.7.6-.9.5-.4.8-.5c.3,0,.6-.1.9-.1s.3,0,.5,0c.1,0,.2,0,.3.1V.5h1c0-.1,0,8.4,0,8.4h-.9v-.6h0s0,.1-.1.2-.2.2-.3.2-.2.2-.4.2c-.2,0-.4,0-.6,0s-.5,0-.8-.2c-.2-.1-.5-.3-.6-.5-.2-.2-.3-.5-.4-.9s-.2-.8-.2-1.3h0ZM59.2,8.2c.2,0,.3,0,.4,0s.2,0,.3-.1.2-.1.2-.2.1-.1.1-.2v-3.5c0,0-.2-.1-.3-.1-.1,0-.3,0-.4,0s-.4,0-.6.1c-.2,0-.4.2-.5.4s-.3.4-.3.7-.1.6-.1,1,0,.7.1,1c0,.3.2.5.3.6.1.2.3.3.4.4s.3.1.5.1h0ZM66.3,5.2c0,.2,0,.5,0,.6s0,.3,0,.5h-2.9c0,.7.2,1.2.4,1.5.3.3.6.5,1.1.5s.3,0,.5,0,.3,0,.4-.1c0,0,.2-.1.2-.2,0,0,.1,0,.1-.1l.4.7s0,0-.2.2c0,0-.2.2-.3.2-.1,0-.3.1-.5.2s-.4,0-.7,0-.7,0-1-.2c-.3-.1-.5-.3-.7-.6s-.4-.6-.5-1c-.1-.4-.2-.8-.2-1.4s0-.9.2-1.3c.1-.4.3-.7.5-.9s.4-.4.7-.5c.3-.1.5-.2.8-.2.5,0,1,.2,1.3.5s.5.9.5,1.6h0ZM64.5,3.9c-.3,0-.6.1-.8.4s-.3.7-.4,1.2h2.1s0,0,0-.2c0,0,0-.2,0-.2,0-.4,0-.7-.2-.9-.2-.2-.4-.3-.7-.3ZM70.1,4.4c0,0-.2-.2-.3-.3-.2-.1-.4-.2-.7-.2s-.4,0-.6.2-.2.3-.2.4,0,.4.2.5c.1.1.3.3.6.4l.4.2c.4.2.7.5.9.7.2.3.3.6.3,1s-.2.8-.5,1.1c-.3.3-.8.5-1.4.5s-.4,0-.6,0-.3-.1-.5-.2c-.1,0-.2-.1-.3-.2,0,0-.2-.1-.2-.2l.5-.8s.1.1.2.2c0,0,.1.1.2.2s.2.1.3.1.3,0,.4,0c.3,0,.5,0,.7-.2s.2-.3.2-.5,0-.3,0-.4c0,0,0-.2-.2-.3s-.2-.2-.3-.2-.2-.2-.4-.2l-.4-.2c-.4-.2-.6-.5-.8-.7-.2-.3-.3-.6-.3-1s0-.4.1-.6c0-.2.2-.3.4-.5.2-.1.3-.2.5-.3.2,0,.4-.1.6-.1s.4,0,.6,0c.2,0,.3,0,.4.2.1,0,.2.1.3.2,0,0,.1.1.2.2l-.4.7h0ZM71.5,7.5c0-.3,0-.6.2-.8s.3-.4.5-.5c.2-.1.5-.2.8-.3.3,0,.6,0,.9,0h.3v-.5c0-.5,0-.8-.3-1-.2-.2-.4-.3-.7-.3s-.5,0-.7.2c-.2.1-.3.2-.5.3l-.4-.6c0,0,.1-.1.2-.2,0,0,.2-.2.4-.2s.3-.1.5-.2.4,0,.6,0c.6,0,1,.2,1.3.5s.5.8.5,1.6v2.6c0,.2,0,.5,0,.7,0,.2,0,.4,0,.5h-.9v-.6h0c0,0,0,.2-.1.2,0,0-.1.2-.2.2,0,0-.2.1-.3.2s-.3,0-.5,0-.4,0-.6-.1c-.2,0-.3-.2-.5-.3-.1-.1-.2-.3-.3-.5,0-.2-.1-.4-.1-.6h0ZM73.2,8.3c.1,0,.3,0,.4,0s.2,0,.3-.1c0,0,.1-.1.2-.2,0,0,0-.1.1-.2v-1.3h-.3c-.5,0-.8.1-1,.2s-.4.4-.4.7,0,.5.2.7c.1.1.3.2.6.2ZM79.5,9v-3.7c0-.5,0-.8-.2-1s-.4-.3-.7-.3-.3,0-.4,0c-.1,0-.2,0-.3.1s-.2.1-.2.2-.1.1-.2.2v4.4h-1V3.2h.9v.6h0c0,0,0-.1.2-.2,0,0,.2-.2.3-.3s.3-.2.4-.2.3,0,.5,0c.7,0,1.1.3,1.4.8,0,0,.1-.2.2-.3,0,0,.2-.2.3-.2.1,0,.3-.1.4-.2s.3,0,.5,0c1.2,0,1.7.7,1.7,2v3.8h-1v-3.7c0-.5,0-.8-.2-1s-.4-.3-.7-.3-.5,0-.7.2c-.2.1-.3.3-.4.4,0,0,0,.2,0,.3,0,0,0,.2,0,.3v3.8h-1,0ZM87.4,4h-1.2v3.2c0,.4,0,.7.2.8.1.1.3.2.5.2s.3,0,.4,0,.2,0,.2-.1v.8c0,0,0,0-.2.1-.2,0-.4.1-.6.1-.5,0-.9-.1-1.1-.4-.2-.3-.4-.7-.4-1.4v-3.3h-.7v-.6h.7c0-.1.1-1.7.1-1.7h.9v1.6h1.4s-.1.8-.1.8ZM42.6,16h-1.2v4.9h-1v-4.9h-.7v-.6h.7v-1.3c0-.3,0-.6.1-.8s.2-.4.3-.5.3-.2.5-.3.4,0,.6,0,.4,0,.5,0,.2,0,.3.1l-.2.8s-.1,0-.2-.1-.2,0-.3,0c-.2,0-.4,0-.5.2s-.2.4-.2.8v1h1.3s-.1.8-.1.8ZM47.5,21h-.9v-.6h0s0,.1-.2.2c0,0-.2.2-.3.3-.1,0-.3.2-.4.2s-.4,0-.6,0-.5,0-.7-.1c-.2,0-.4-.2-.5-.4s-.3-.4-.3-.6c0-.3-.1-.6-.1-1v-3.7h1v3.7c0,.5,0,.8.2,1,.2.2.4.3.7.3s.5,0,.7-.2c.2-.1.3-.3.5-.4v-4.4h1s0,5.7,0,5.7ZM45.2,13.6c0,.2,0,.3-.2.4s-.2.2-.4.2-.3,0-.4-.2-.2-.3-.2-.4,0-.3.2-.4.2-.2.4-.2.3,0,.4.2.2.3.2.4ZM47,13.6c0,.2,0,.3-.2.4s-.2.2-.4.2-.3,0-.4-.2-.2-.3-.2-.4,0-.3.2-.4.2-.2.4-.2.3,0,.4.2.2.3.2.4ZM51.5,16.1s0,0-.2,0-.2,0-.3,0c-.3,0-.5,0-.7.2-.2.2-.3.3-.4.5v4.2h-1v-5.7h.9v.8h0c0-.1,0-.2.2-.3s.1-.2.2-.3.2-.1.3-.2c.1,0,.3,0,.5,0s.2,0,.3,0,.1,0,.2,0c0,0-.1.9-.1.9ZM58,14s0,0-.2-.1c0,0-.2-.1-.3-.2-.1,0-.2-.1-.4-.1s-.3,0-.5,0c-.4,0-.6,0-.8.3s-.3.4-.3.7,0,.3,0,.4c0,.1.1.3.2.4,0,.1.2.3.3.4.1.1.3.3.5.4l.7.5c.2.2.4.3.5.5.2.2.3.3.4.5.1.2.2.4.3.6,0,.2.1.5.1.7,0,.6-.2,1.1-.6,1.5-.4.4-1,.6-1.7.6s-.6,0-.8,0-.4-.1-.6-.2-.3-.2-.4-.2c-.1,0-.2-.2-.2-.2l.4-.9s.1.1.2.2.2.2.3.2.3.1.5.2c.2,0,.4,0,.6,0,.4,0,.7-.1.9-.3.2-.2.3-.4.3-.7s0-.3,0-.5c0-.1-.1-.3-.2-.4s-.2-.3-.3-.4-.3-.3-.5-.4l-.7-.6c-.2-.2-.4-.4-.6-.5-.2-.2-.3-.3-.4-.5-.1-.2-.2-.4-.3-.6,0-.2,0-.5,0-.8s0-.5.1-.7c0-.2.2-.4.4-.6s.4-.3.7-.4c.3,0,.5-.1.9-.1s.5,0,.7,0c.2,0,.4.1.5.2.1,0,.3.1.4.2s.2.1.2.2c0,0-.4.8-.4.8ZM60.8,21h-1v-5.7h1v5.7ZM60.3,13.9c-.2,0-.4,0-.5-.2s-.2-.3-.2-.5,0-.4.2-.5.3-.2.5-.2.3,0,.5.2.2.3.2.5,0,.4-.2.5-.3.2-.5.2ZM65.5,16.4s0,0-.1-.1c0,0-.1,0-.2-.1s-.2,0-.3-.1-.2,0-.4,0c-.2,0-.4,0-.6.1-.2,0-.3.2-.5.4s-.2.4-.3.6c0,.3-.1.6-.1,1s0,.8.1,1.1c0,.3.2.5.3.7.1.2.3.3.4.4.2,0,.4.1.6.1.3,0,.5,0,.7-.2s.3-.2.3-.2l.4.7s0,.1-.2.2c0,0-.2.1-.3.2s-.3.1-.4.2c-.2,0-.4,0-.6,0-.3,0-.6,0-.9-.2s-.5-.3-.7-.5-.4-.5-.5-.9-.2-.9-.2-1.4,0-1,.2-1.4.3-.7.6-.9c.2-.2.5-.4.8-.5.3-.1.6-.2.9-.2s.4,0,.6,0c.2,0,.3,0,.4.1.1,0,.2.1.3.2,0,0,.1.1.2.2l-.4.7h0ZM70,21v-3.7c0-.5,0-.8-.2-1-.2-.2-.4-.3-.7-.3s-.5,0-.7.2-.3.3-.5.4v4.4h-1v-8.4h1c0-.1,0,3.3,0,3.3h0s0-.1.1-.2c0,0,.2-.2.3-.2s.3-.1.4-.2c.2,0,.4,0,.6,0,.5,0,.9.2,1.2.5s.4.9.4,1.6v3.7h-1ZM76.1,17.2c0,.2,0,.5,0,.6s0,.3,0,.5h-2.9c0,.7.2,1.2.4,1.5.3.3.6.5,1.1.5s.3,0,.5,0,.3,0,.4-.1c0,0,.2-.1.2-.2,0,0,.1,0,.1-.1l.4.7s0,0-.2.2c0,0-.2.2-.3.2-.1,0-.3.1-.5.2s-.4,0-.7,0-.7,0-1-.2c-.3-.1-.5-.3-.7-.6s-.4-.6-.5-1c-.1-.4-.2-.8-.2-1.4s0-.9.2-1.3c.1-.4.3-.7.5-.9s.4-.4.7-.5c.3-.1.5-.2.8-.2.5,0,1,.2,1.3.5s.5.9.5,1.6ZM74.3,15.9c-.3,0-.6.1-.8.4s-.3.7-.4,1.2h2.1s0,0,0-.2c0,0,0-.2,0-.2,0-.4,0-.7-.2-.9-.2-.2-.4-.3-.7-.3ZM79.9,16.1s0,0-.2,0-.2,0-.3,0c-.3,0-.5,0-.7.2-.2.2-.3.3-.4.5v4.2h-1v-5.7h.9v.8h0c0-.1,0-.2.2-.3s.1-.2.2-.3.2-.1.3-.2c.1,0,.3,0,.5,0s.2,0,.3,0,.1,0,.2,0c0,0-.1.9-.1.9ZM83.9,21v-3.7c0-.5,0-.8-.2-1-.2-.2-.4-.3-.7-.3s-.5,0-.7.2-.3.3-.5.4v4.4h-1v-8.4h1c0-.1,0,3.3,0,3.3h0s0-.1.1-.2c0,0,.2-.2.3-.2s.3-.1.4-.2c.2,0,.4,0,.6,0,.5,0,.9.2,1.2.5s.4.9.4,1.6v3.7h-1ZM90,17.2c0,.2,0,.5,0,.6s0,.3,0,.5h-2.9c0,.7.2,1.2.4,1.5.3.3.6.5,1.1.5s.3,0,.5,0,.3,0,.4-.1c0,0,.2-.1.2-.2,0,0,.1,0,.1-.1l.4.7s0,0-.2.2c0,0-.2.2-.3.2-.1,0-.3.1-.5.2s-.4,0-.7,0-.7,0-1-.2c-.3-.1-.5-.3-.7-.6s-.4-.6-.5-1c-.1-.4-.2-.8-.2-1.4s0-.9.2-1.3c.1-.4.3-.7.5-.9s.4-.4.7-.5c.3-.1.5-.2.8-.2.5,0,1,.2,1.3.5s.5.9.5,1.6ZM88.2,15.9c-.3,0-.6.1-.8.4s-.3.7-.4,1.2h2.1s0,0,0-.2c0,0,0-.2,0-.2,0-.4,0-.7-.2-.9-.2-.2-.4-.3-.7-.3ZM92.3,21h-1v-5.7h1v5.7ZM91.8,13.9c-.2,0-.4,0-.5-.2s-.2-.3-.2-.5,0-.4.2-.5.3-.2.5-.2.3,0,.5.2.2.3.2.5,0,.4-.2.5-.3.2-.5.2ZM96.2,16h-1.2v3.2c0,.4,0,.7.2.8.1.1.3.2.5.2s.3,0,.4,0,.2,0,.2-.1v.8c0,0,0,0-.2.1-.2,0-.4.1-.6.1-.5,0-.9-.1-1.1-.4-.2-.3-.4-.7-.4-1.4v-3.3h-.7v-.6h.7c0-.1.1-1.7.1-1.7h.9v1.6h1.4s-.1.8-.1.8ZM100.8,21h-1v-5.7h1v5.7ZM100.3,13.9c-.2,0-.4,0-.5-.2s-.2-.3-.2-.5,0-.4.2-.5.3-.2.5-.2.3,0,.5.2.2.3.2.5,0,.4-.2.5-.3.2-.5.2ZM105.4,21v-3.7c0-.5,0-.8-.2-1-.2-.2-.4-.3-.7-.3s-.5,0-.7.2-.3.3-.5.4v4.4h-1v-5.7h.9v.6h0s0-.1.2-.2c0,0,.2-.2.3-.3s.3-.2.5-.2.4,0,.6,0,.5,0,.7.1c.2,0,.4.2.5.4s.3.4.3.6c0,.3.1.6.1,1v3.7h-1ZM110,18.2c0-.6,0-1.1.2-1.5s.3-.7.6-.9.5-.4.8-.5c.3,0,.6-.1.9-.1s.3,0,.5,0c.1,0,.2,0,.3.1v-2.7h1c0-.1,0,8.4,0,8.4h-.9v-.6h0s0,.1-.1.2-.2.2-.3.2-.2.2-.4.2c-.2,0-.4,0-.6,0s-.5,0-.8-.2c-.2-.1-.5-.3-.6-.5-.2-.2-.3-.5-.4-.9s-.2-.8-.2-1.3ZM112.3,20.2c.2,0,.3,0,.4,0s.2,0,.3-.1.2-.1.2-.2.1-.1.1-.2v-3.5c0,0-.2-.1-.3-.1-.1,0-.3,0-.4,0s-.4,0-.6.1c-.2,0-.4.2-.5.4s-.3.4-.3.7-.1.6-.1,1,0,.7.1,1c0,.3.2.5.3.6.1.2.3.3.4.4s.3.1.5.1ZM119.5,17.2c0,.2,0,.5,0,.6s0,.3,0,.5h-2.9c0,.7.2,1.2.4,1.5.3.3.6.5,1.1.5s.3,0,.5,0,.3,0,.4-.1c0,0,.2-.1.2-.2,0,0,.1,0,.1-.1l.4.7s0,0-.2.2c0,0-.2.2-.3.2-.1,0-.3.1-.5.2s-.4,0-.7,0-.7,0-1-.2c-.3-.1-.5-.3-.7-.6s-.4-.6-.5-1c-.1-.4-.2-.8-.2-1.4s0-.9.2-1.3c.1-.4.3-.7.5-.9s.4-.4.7-.5c.3-.1.5-.2.8-.2.5,0,1,.2,1.3.5s.5.9.5,1.6h0ZM117.6,15.9c-.3,0-.6.1-.8.4s-.3.7-.4,1.2h2.1s0,0,0-.2c0,0,0-.2,0-.2,0-.4,0-.7-.2-.9-.2-.2-.4-.3-.7-.3ZM123.3,16.1s0,0-.2,0-.2,0-.3,0c-.3,0-.5,0-.7.2-.2.2-.3.3-.4.5v4.2h-1v-5.7h.9v.8h0c0-.1,0-.2.2-.3s.1-.2.2-.3.2-.1.3-.2c.1,0,.3,0,.5,0s.2,0,.3,0,.1,0,.2,0c0,0-.1.9-.1.9ZM40.8,25.5h-.9v-.7h2.8v.7h-.9v6.7h.9v.7h-2.8v-.7h.9s0-6.7,0-6.7ZM47,33v-3.7c0-.5,0-.8-.2-1-.2-.2-.4-.3-.7-.3s-.5,0-.7.2-.3.3-.5.4v4.4h-1v-5.7h.9v.6h0s0-.1.2-.2c0,0,.2-.2.3-.3s.3-.2.5-.2.4,0,.6,0,.5,0,.7.1c.2,0,.4.2.5.4s.3.4.3.6c0,.3.1.6.1,1v3.7h-1ZM51.8,28h-1.2v4.9h-1v-4.9h-.7v-.6h.7v-1.3c0-.3,0-.6.1-.8s.2-.4.3-.5.3-.2.5-.3.4,0,.6,0,.4,0,.5,0,.2,0,.3.1l-.2.8s-.1,0-.2-.1-.2,0-.3,0c-.2,0-.4,0-.5.2s-.2.4-.2.8v1h1.3s-.1.8-.1.8ZM52.4,30.1c0-.5,0-1,.2-1.4.1-.4.3-.7.5-.9.2-.2.5-.4.7-.5.3-.1.6-.2.9-.2s.6,0,.9.2c.3.1.5.3.7.5.2.2.4.6.5.9.1.4.2.8.2,1.4s0,1-.2,1.4-.3.7-.5.9c-.2.2-.5.4-.7.5s-.6.2-.9.2-.6,0-.9-.2-.5-.3-.7-.5c-.2-.2-.4-.6-.5-.9-.1-.4-.2-.8-.2-1.4ZM55.9,30.1c0-.8-.1-1.3-.3-1.7-.2-.3-.5-.5-.9-.5s-.7.2-.9.5c-.2.3-.3.9-.3,1.7s.1,1.3.3,1.6.5.5.9.5.7-.2.9-.5c.2-.3.3-.9.3-1.6ZM60.6,28.1s0,0-.2,0-.2,0-.3,0c-.3,0-.5,0-.7.2-.2.2-.3.3-.4.5v4.2h-1v-5.7h.9v.8h0c0-.1,0-.2.2-.3s.1-.2.2-.3.2-.1.3-.2c.1,0,.3,0,.5,0s.2,0,.3,0,.1,0,.2,0c0,0-.1.9-.1.9ZM64.5,33v-3.7c0-.5,0-.8-.2-1s-.4-.3-.7-.3-.3,0-.4,0c-.1,0-.2,0-.3.1s-.2.1-.2.2-.1.1-.2.2v4.4h-1v-5.7h.9v.6h0c0,0,0-.1.2-.2,0,0,.2-.2.3-.3s.3-.2.4-.2.3,0,.5,0c.7,0,1.1.3,1.4.8,0,0,.1-.2.2-.3,0,0,.2-.2.3-.2.1,0,.3-.1.4-.2s.3,0,.5,0c1.2,0,1.7.7,1.7,2v3.8h-1v-3.7c0-.5,0-.8-.2-1s-.4-.3-.7-.3-.5,0-.7.2c-.2.1-.3.3-.4.4,0,0,0,.2,0,.3,0,0,0,.2,0,.3v3.8h-1,0ZM69.6,31.5c0-.3,0-.6.2-.8s.3-.4.5-.5c.2-.1.5-.2.8-.3.3,0,.6,0,.9,0h.3v-.5c0-.5,0-.8-.3-1-.2-.2-.4-.3-.7-.3s-.5,0-.7.2c-.2.1-.3.2-.5.3l-.4-.6c0,0,.1-.1.2-.2,0,0,.2-.2.4-.2s.3-.1.5-.2.4,0,.6,0c.6,0,1,.2,1.3.5s.5.8.5,1.6v2.6c0,.2,0,.5,0,.7,0,.2,0,.4,0,.5h-.9v-.6h0c0,0,0,.2-.1.2,0,0-.1.2-.2.2,0,0-.2.1-.3.2s-.3,0-.5,0-.4,0-.6-.1c-.2,0-.3-.2-.5-.3-.1-.1-.2-.3-.3-.5,0-.2-.1-.4-.1-.6h0ZM71.3,32.3c.1,0,.3,0,.4,0s.2,0,.3-.1c0,0,.1-.1.2-.2,0,0,0-.1.1-.2v-1.3h-.3c-.5,0-.8.1-1,.2s-.4.4-.4.7,0,.5.2.7c.1.1.3.2.6.2ZM77.1,28h-1.2v3.2c0,.4,0,.7.2.8.1.1.3.2.5.2s.3,0,.4,0,.2,0,.2-.1v.8c0,0,0,0-.2.1-.2,0-.4.1-.6.1-.5,0-.9-.1-1.1-.4-.2-.3-.4-.7-.4-1.4v-3.3h-.7v-.6h.7c0-.1.1-1.7.1-1.7h.9v1.6h1.4s-.1.8-.1.8ZM79.2,33h-1v-5.7h1v5.7ZM78.7,25.9c-.2,0-.4,0-.5-.2s-.2-.3-.2-.5,0-.4.2-.5.3-.2.5-.2.3,0,.5.2.2.3.2.5,0,.4-.2.5-.3.2-.5.2ZM80.4,30.1c0-.5,0-1,.2-1.4.1-.4.3-.7.5-.9.2-.2.5-.4.7-.5.3-.1.6-.2.9-.2s.6,0,.9.2c.3.1.5.3.7.5.2.2.4.6.5.9.1.4.2.8.2,1.4s0,1-.2,1.4-.3.7-.5.9c-.2.2-.5.4-.7.5s-.6.2-.9.2-.6,0-.9-.2-.5-.3-.7-.5c-.2-.2-.4-.6-.5-.9-.1-.4-.2-.8-.2-1.4ZM83.9,30.1c0-.8-.1-1.3-.3-1.7-.2-.3-.5-.5-.9-.5s-.7.2-.9.5c-.2.3-.3.9-.3,1.7s.1,1.3.3,1.6.5.5.9.5.7-.2.9-.5c.2-.3.3-.9.3-1.6ZM89.3,33v-3.7c0-.5,0-.8-.2-1-.2-.2-.4-.3-.7-.3s-.5,0-.7.2-.3.3-.5.4v4.4h-1v-5.7h.9v.6h0s0-.1.2-.2c0,0,.2-.2.3-.3s.3-.2.5-.2.4,0,.6,0,.5,0,.7.1c.2,0,.4.2.5.4s.3.4.3.6c0,.3.1.6.1,1v3.7h-1ZM94.1,28.4c0,0-.2-.2-.3-.3-.2-.1-.4-.2-.7-.2s-.4,0-.6.2-.2.3-.2.4,0,.4.2.5c.1.1.3.3.6.4l.4.2c.4.2.7.5.9.7.2.3.3.6.3,1s-.2.8-.5,1.1c-.3.3-.8.5-1.4.5s-.4,0-.6,0-.3-.1-.5-.2c-.1,0-.2-.1-.3-.2,0,0-.2-.1-.2-.2l.5-.8s.1.1.2.2c0,0,.1.1.2.2s.2.1.3.1.3,0,.4,0c.3,0,.5,0,.7-.2s.2-.3.2-.5,0-.3,0-.4c0,0,0-.2-.2-.3s-.2-.2-.3-.2-.2-.2-.4-.2l-.4-.2c-.4-.2-.6-.5-.8-.7-.2-.3-.3-.6-.3-1s0-.4.1-.6c0-.2.2-.3.4-.5.2-.1.3-.2.5-.3.2,0,.4-.1.6-.1s.4,0,.6,0c.2,0,.3,0,.4.2.1,0,.2.1.3.2,0,0,.1.1.2.2l-.4.7h0ZM98.3,28h-1.2v3.2c0,.4,0,.7.2.8.1.1.3.2.5.2s.3,0,.4,0,.2,0,.2-.1v.8c0,0,0,0-.2.1-.2,0-.4.1-.6.1-.5,0-.9-.1-1.1-.4-.2-.3-.4-.7-.4-1.4v-3.3h-.7v-.6h.7c0-.1.1-1.7.1-1.7h.9v1.6h1.4s-.1.8-.1.8ZM102.9,29.2c0,.2,0,.5,0,.6s0,.3,0,.5h-2.9c0,.7.2,1.2.4,1.5.3.3.6.5,1.1.5s.3,0,.5,0,.3,0,.4-.1c0,0,.2-.1.2-.2,0,0,.1,0,.1-.1l.4.7s0,0-.2.2c0,0-.2.2-.3.2-.1,0-.3.1-.5.2s-.4,0-.7,0-.7,0-1-.2c-.3-.1-.5-.3-.7-.6s-.4-.6-.5-1c-.1-.4-.2-.8-.2-1.4s0-.9.2-1.3c.1-.4.3-.7.5-.9s.4-.4.7-.5c.3-.1.5-.2.8-.2.5,0,1,.2,1.3.5s.5.9.5,1.6ZM101.1,27.9c-.3,0-.6.1-.8.4s-.3.7-.4,1.2h2.1s0,0,0-.2c0,0,0-.2,0-.2,0-.4,0-.7-.2-.9-.2-.2-.4-.3-.7-.3ZM107.4,28.4s0,0-.1-.1c0,0-.1,0-.2-.1s-.2,0-.3-.1-.2,0-.4,0c-.2,0-.4,0-.6.1-.2,0-.3.2-.5.4s-.2.4-.3.6c0,.3-.1.6-.1,1s0,.8.1,1.1c0,.3.2.5.3.7.1.2.3.3.4.4.2,0,.4.1.6.1.3,0,.5,0,.7-.2s.3-.2.3-.2l.4.7s0,.1-.2.2c0,0-.2.1-.3.2s-.3.1-.4.2c-.2,0-.4,0-.6,0-.3,0-.6,0-.9-.2s-.5-.3-.7-.5-.4-.5-.5-.9-.2-.9-.2-1.4,0-1,.2-1.4.3-.7.6-.9c.2-.2.5-.4.8-.5.3-.1.6-.2.9-.2s.4,0,.6,0c.2,0,.3,0,.4.1.1,0,.2.1.3.2,0,0,.1.1.2.2,0,0-.4.7-.4.7ZM111.9,33v-3.7c0-.5,0-.8-.2-1-.2-.2-.4-.3-.7-.3s-.5,0-.7.2-.3.3-.5.4v4.4h-1v-8.4h1c0-.1,0,3.3,0,3.3h0s0-.1.1-.2c0,0,.2-.2.3-.2s.3-.1.4-.2c.2,0,.4,0,.6,0,.5,0,.9.2,1.2.5s.4.9.4,1.6v3.7h-1ZM117.5,33v-3.7c0-.5,0-.8-.2-1-.2-.2-.4-.3-.7-.3s-.5,0-.7.2-.3.3-.5.4v4.4h-1v-5.7h.9v.6h0s0-.1.2-.2c0,0,.2-.2.3-.3s.3-.2.5-.2.4,0,.6,0,.5,0,.7.1c.2,0,.4.2.5.4s.3.4.3.6c0,.3.1.6.1,1v3.7h-1ZM120.8,33h-1v-5.7h1v5.7ZM120.3,25.9c-.2,0-.4,0-.5-.2s-.2-.3-.2-.5,0-.4.2-.5.3-.2.5-.2.3,0,.5.2.2.3.2.5,0,.4-.2.5-.3.2-.5.2ZM124.5,29.9l2,3.1h-1.2l-1.6-2.7h-.4v2.7h-1v-8.4h1c0-.1,0,4.9,0,4.9h.4l1.5-2.2h1.1l-1.9,2.6h0Z"/>
  </g>
  <g id="Adler-und-Saeulenelement">
    <path d="M14.1,8.3c0-.2,0-.5,0-.7s0-.3,0-.4c2,0,3.7-1.5,3.7-3.1s-.5-1.5-.9-1.9c0,0,.1,0,.2,0,.3.3,1.1,1.2,1.1,2.3,0,2-2,3.8-4.2,3.9M12.1,1.4c0-.2-.1-.4-.2-.6,0-.2,0-.4.4-.2-.2.2,0,.5,0,.5,0,0,.4-.2.3-.4.5.1.2.8-.4.7M11.6,2.4c0-.3-.2-.6-.4-.8-.2-.2-.5-.5-.9-.5s-.5,0-.7.2c0-.1-.2-.4-.2-.6s.2-.3.7-.3c1,0,1.6.5,1.6,1.2s-.1.5-.2.7M14.3,15.7c.1,0,.2,0,.2,0,.3.8,1.4,2.3,1.5,2.4h0s0,0,0,0c.3,0,1-.2,1.6-.2h0c0,0,.1,0,.2,0,0,0,0,.1,0,.2,0,.1,0,.4-.1.5-.2-.2-.6-.3-1.1-.3s-.4,0-.5,0h0s0,0,0,0l.3.3c.5.5.9.9.9,1.2s-.2.4-.3.5c0-.5-.5-1.2-1.1-1.6h0s0,.1,0,.1c0,.1,0,.3,0,.5,0,1,0,1.1-.4,1.1s-.1,0-.2,0c.2-.2.3-.5.3-1.1v-.3s0-.2,0-.2c0-.2,0-.4,0-.5h0c0,0,0,0,0,0-.2,0-.5,0-.7,0-.5,0-.8,0-1,.3-.2-.1-.3-.3-.3-.5,0-.2.1-.2.3-.2s.2,0,.3,0c.2,0,.5,0,1.2,0h0,0c-.2-.5-.6-1.2-1.3-2,0-.2.1-.4.4-.4M8.1,18.1h0s0,0,0,0c.6,0,1,0,1.2,0,.1,0,.2,0,.3,0,.2,0,.3,0,.3.2s-.2.4-.3.5c-.2-.2-.6-.3-1-.3s-.5,0-.7,0h0s0,0,0,0h0c0,.2,0,.4,0,.6v.2s0,.3,0,.3c0,.5,0,.9.3,1.1,0,0-.1,0-.2,0-.3,0-.4-.1-.4-1.1s0-.4,0-.5v-.2s0,0,0,0c-.5.4-1,1.1-1.1,1.6-.2,0-.3-.3-.3-.5,0-.3.4-.7.9-1.2l.3-.3h0c-.1,0-.3,0-.5,0-.5,0-.9.1-1.1.3,0-.1-.1-.4-.1-.5s0-.2,0-.2c0,0,.1,0,.2,0h0c.6,0,1.3.1,1.6.2h0s0,0,0,0c0,0,1.2-1.6,1.5-2.4,0,0,.1,0,.2,0,.2,0,.3.2.4.4-.7.9-1.2,1.5-1.3,2M5,4.4c0-1.1.8-2,1.1-2.3,0,0,.1,0,.2,0-.3.4-.9,1-.9,1.9,0,1.7,1.8,3.1,3.8,3.1,0,.1,0,.3,0,.4,0,.2,0,.5,0,.7-2.3,0-4.3-1.9-4.3-3.9M20.3,7.9c1,1.6,1.8,1.6,3,1.6-1-.8-1.7-1.8-2-2.3l-1.9-3c-.2-.9-.7-1.8-1.4-2.4.2,0,.4-.2.6-.3-1.2,0-2.4-.6-3.1-.6s-.7.3-.7.6c0,.4.4.8,1.1.8s.4,0,.6,0c.4.5.7,1,.7,1.7,0,1.3-1.6,2.3-3.1,2.3s-.2,0-.3,0c-.1-.3-.6-.9-.6-1.5,0-1,.7-1.9.7-2.9s-.3-1-.4-1.2c.2-.2.4-.4.5-.6-.1,0-.2,0-.4,0-.8,0-1.4-.2-2-.2s-.4.1-.4.2,0,0,0,0c-.1,0-.2,0-.4-.1-.2,0-.4,0-.6,0-.7,0-1,.3-1,.6s.2.6.4.9c.3-.1.6-.2.8-.2.4,0,.7.4.9.8-.3,0-.3,0-.6,0-.7,0-1.2-.3-1.3-.3s0,0,0,0c0,.1.2.4.6.5.5.2,1.3.3,1.4.3,0,0-.1.3-.3.3,0,0,0,0,0,0-.5-.1-.7-.2-1.4-.4,0,0,0,0,0,0,0,.3.7.9,1.3,1.1-.5.7-1.2,1.4-1.5,2.4,0,0-.2,0-.3,0-1.6,0-3.1-1-3.1-2.3s.3-1.2.7-1.7c.2,0,.4,0,.6,0,.7,0,1.1-.4,1.1-.8,0-.3-.3-.6-.7-.6-.7,0-1.9.6-3.1.6.1,0,.3.2.6.3-.7.6-1.2,1.5-1.4,2.4l-1.9,3c-.3.5-1,1.5-2,2.3,1.2,0,2,0,3-1.6l1-1.5c0,.2.2.4.3.6l-1.9,3.1c-.3.5-1,1.5-2,2.3,1.2,0,2,0,3-1.6l1.6-2.6c.1.1.3.3.4.4l-2.3,3.7c-.3.5-1,1.5-2,2.2,1.2,0,2,0,3-1.6l2.3-3.6c.1,0,.3.2.5.3l-2.8,4.4c-.3.5-1,1.5-2,2.2,1.2,0,2,0,3-1.6l2.8-4.5c.2,0,.3.1.5.2l-3.2,5.1c-.3.5-1,1.5-2,2.2,1.2,0,2,0,3-1.6l3.4-5.5s0,0,.1,0c0,.3.2.6.2.8,0,1.7-1.1,3.2-2.5,4.4,0,0,.2,0,.4,0,.3,0,.5,0,.6,0-.3.7-1,1.6-1.3,2.1-.4,0-1.1-.1-1.5-.1s-.5.3-.5.5c0,.4.2.7.4.9,0-.2.2-.5,1.1-.5s0,0,0,0c-.2.3-1,.9-1,1.4s.4.8.8.8c0-.1,0-.2,0-.3,0-.4.3-.9.6-1.2,0,0,0,0,0,.2,0,.9,0,1.4.7,1.4s.5-.2.6-.2c-.4-.4-.4-.6-.4-1.2,0-.1,0-.3,0-.5,0-.1,0-.3,0-.4.2,0,.3,0,.5,0,0,0,.8,0,1,.4.2-.2.6-.5.6-.8s-.1-.5-.5-.5-.7,0-1.1,0c.1-.3.6-1,1.1-1.6,0,.2.2.4.4.6,0-.4.2-1.5.8-2.1,0,.4.2.9.2,1.8,0,2.3-.6,4-1.7,4.3.2.3.5.5.8.5s.7-.5.9-1c.1.3.5,1.2.8,1.2s.7-.8.8-1.2c.2.5.5,1,.9,1s.7-.2.8-.5c-1.2-.3-1.7-2-1.7-4.3s0-1.4.2-1.8c.6.7.8,1.8.8,2.1.2-.2.3-.4.4-.6.4.5,1,1.3,1.1,1.6-.4,0-.9,0-1.1,0-.4,0-.5.2-.5.5,0,.3.3.6.6.8.2-.4,1-.4,1-.4.2,0,.2,0,.5,0,0,.1,0,.3,0,.4,0,.2,0,.3,0,.5,0,.5,0,.8-.4,1.2,0,0,.3.2.6.2.6,0,.7-.4.7-1.4s0-.1,0-.2c.3.3.6.8.6,1.2s0,.2,0,.3c.5,0,.8-.5.8-.8,0-.5-.7-1.1-1-1.4,0,0,0,0,0,0,.8,0,1,.3,1.1.5.2-.2.4-.5.4-.9s0-.5-.5-.5-1.1,0-1.5.1c-.3-.5-1-1.4-1.3-2.1.1,0,.3,0,.6,0s.3,0,.4,0c-1.4-1.2-2.5-2.7-2.5-4.4s0-.6.2-.8c0,0,0,0,.1,0l3.4,5.5c1,1.6,1.8,1.6,3,1.6-1-.8-1.7-1.8-2-2.2l-3.2-5.1c.2,0,.3-.1.5-.2l2.8,4.5c1,1.6,1.8,1.6,3,1.6-1-.8-1.7-1.7-2-2.2l-2.8-4.4c.2,0,.3-.2.5-.3l2.3,3.6c1,1.6,1.8,1.6,3,1.6-1-.8-1.7-1.7-2-2.2l-2.3-3.7c.1-.1.3-.2.4-.4l1.6,2.6c1,1.6,1.8,1.6,3,1.6-1-.8-1.7-1.7-2-2.3l-1.9-3.1c.1-.2.2-.4.3-.6l1,1.5Z"/>
    <path d="M32.9,21h-3.5V1h3.5v20Z"/>
    <path class="st1" d="M32.9,41h-3.5v-20h3.5v20Z"/>
    <path class="st0" d="M32.9,61h-3.5v-20h3.5v20Z"/>
  </g>
</svg>