<svg id="Ebene_1" data-name="Ebene 1" xmlns="http://www.w3.org/2000/svg" viewBox="0 0 160 128"><defs><style>.cls-1{fill:#00305e;}</style></defs><title>logo_his</title><path class="cls-1" d="M31.9,95.29V90.55H28.77v4.75H25.82v-12h2.95v4.61H31.9V83.3h2.95v12Zm5.37,0h2.95v-12H37.28Zm9,.1c2.49,0,4.14-1.3,4.14-3.4a3,3,0,0,0-1-2.37,3.85,3.85,0,0,0-2.19-.84l-1.31-.2a3.46,3.46,0,0,1-1.62-.66,1.73,1.73,0,0,1-.54-1.38c0-1.33.93-2.22,2.53-2.22a3.78,3.78,0,0,1,2.8,1l.83-.82A4.81,4.81,0,0,0,46.3,83.2c-2.37,0-3.84,1.35-3.84,3.39a2.83,2.83,0,0,0,.91,2.24,4.36,4.36,0,0,0,2.21.91L47,90a2.58,2.58,0,0,1,1.57.57,1.93,1.93,0,0,1,.57,1.5c0,1.4-1.08,2.22-2.83,2.22A4.12,4.12,0,0,1,43,92.94l-.88.88a5.23,5.23,0,0,0,4.11,1.58M58.89,85.21c.76.77.84,1.58.84,4.09s-.08,3.32-.84,4.09a2.93,2.93,0,0,1-4.14,0c-.76-.77-.84-1.58-.84-4.09s.08-3.32.84-4.09a2.93,2.93,0,0,1,4.14,0m1,8.94C61,93,61,91.84,61,89.3s0-3.72-1.13-4.85a4.4,4.4,0,0,0-6.13,0c-1.13,1.13-1.13,2.31-1.13,4.85s0,3.72,1.13,4.85a4.39,4.39,0,0,0,6.13,0m11.55,1.15V94.15H65.3V83.3H64v12Zm5.71.1a4,4,0,0,0,4.19-4.06v-8H80.06v7.93a2.91,2.91,0,1,1-5.81,0V83.3H73v8a4,4,0,0,0,4.18,4.06M91.63,84.45V83.3H83.41v1.15h3.47V95.29h1.28V84.45Zm2.24,10.85h1.28v-12H93.87Zm10.56-10.09c.76.77.84,1.58.84,4.09s-.08,3.32-.84,4.09a2.93,2.93,0,0,1-4.14,0c-.76-.77-.84-1.58-.84-4.09s.08-3.32.84-4.09a2.93,2.93,0,0,1,4.14,0m1,8.94c1.13-1.13,1.13-2.31,1.13-4.85s0-3.72-1.13-4.85a4.4,4.4,0,0,0-6.13,0c-1.13,1.13-1.13,2.31-1.13,4.85s0,3.72,1.13,4.85a4.39,4.39,0,0,0,6.13,0m13,1.15v-12h-1.28v9.58l-6.37-9.58h-1.21v12h1.28V85.68l6.37,9.62Zm6.55.1c2.49,0,4.14-1.3,4.14-3.4a3,3,0,0,0-1-2.37,3.85,3.85,0,0,0-2.19-.84l-1.31-.2a3.46,3.46,0,0,1-1.62-.66,1.73,1.73,0,0,1-.54-1.38c0-1.33.93-2.22,2.53-2.22a3.78,3.78,0,0,1,2.8,1l.83-.82A4.81,4.81,0,0,0,125,83.2c-2.37,0-3.84,1.35-3.84,3.39a2.83,2.83,0,0,0,.91,2.24,4.36,4.36,0,0,0,2.21.91l1.4.22a2.58,2.58,0,0,1,1.57.57,1.93,1.93,0,0,1,.57,1.5c0,1.4-1.08,2.22-2.83,2.22a4.12,4.12,0,0,1-3.27-1.31l-.88.88A5.23,5.23,0,0,0,125,95.4M64,72.73H74.49V57.59H64ZM95.39,32.67H84.92V72.73H95.39Zm-20.9,0H64v14.5H74.49Z"/></svg>