<?xml version="1.0" encoding="UTF-8"?>
<svg id="Ebene_1" xmlns="http://www.w3.org/2000/svg" version="1.1" viewBox="0 0 300 300">
  <!-- Generator: Adobe Illustrator 29.8.4, SVG Export Plug-In . SVG Version: 2.1.1 Build 6)  -->
  <defs>
    <style>
      .st0 {
        fill: #fff;
      }
    </style>
  </defs>
  <path class="st0" d="M38.4,132.3c-3,0-5.8-.3-8.6-1-2.8-.7-5-1.5-6.8-2.6l3.8-8.7c1.7,1,3.6,1.8,5.6,2.3,2.1.6,4.1.9,6,.9s2,0,2.7-.2c.7-.2,1.1-.4,1.4-.7.3-.3.5-.6.5-1,0-.6-.4-1.1-1.1-1.5-.7-.4-1.6-.7-2.8-.9-1.2-.3-2.4-.5-3.8-.8-1.4-.3-2.8-.7-4.2-1.1-1.4-.5-2.7-1.1-3.8-1.9-1.2-.8-2.1-1.8-2.8-3.1-.7-1.3-1.1-2.8-1.1-4.7s.6-4.2,1.8-6c1.2-1.8,3.1-3.2,5.5-4.3,2.4-1.1,5.5-1.6,9.1-1.6s4.7.3,7.1.8c2.3.5,4.4,1.3,6.3,2.3l-3.6,8.6c-1.7-.9-3.4-1.5-5.1-2-1.6-.4-3.2-.7-4.8-.7s-2.1.1-2.7.3c-.7.2-1.2.5-1.4.8-.3.3-.4.7-.4,1.1,0,.6.4,1.1,1.1,1.4.7.4,1.6.6,2.8.9,1.2.2,2.4.5,3.8.8,1.4.3,2.8.6,4.2,1.1,1.4.5,2.6,1.1,3.8,1.9,1.2.8,2.1,1.8,2.8,3,.7,1.2,1.1,2.8,1.1,4.6s-.6,4.1-1.8,5.9c-1.2,1.8-3.1,3.2-5.5,4.3-2.4,1.1-5.5,1.6-9.1,1.6Z"/>
  <path class="st0" d="M66.1,131.5v-26.1h-10.3v-9.2h32.6v9.2h-10.3v26.1h-11.9Z"/>
  <path class="st0" d="M86.4,131.5l15.4-35.3h11.7l15.4,35.3h-12.3l-11.4-29.6h4.6l-11.4,29.6h-12.1ZM95.6,125.4l3-8.6h16.2l3,8.6h-22.3Z"/>
  <path class="st0" d="M131.5,131.5v-35.3h17c3.3,0,6.1.5,8.5,1.6,2.4,1.1,4.3,2.6,5.6,4.6,1.3,2,2,4.4,2,7.1s-.7,5.1-2,7c-1.3,2-3.2,3.5-5.6,4.5-2.4,1-5.3,1.6-8.5,1.6h-10.4l5.3-4.9v13.8h-11.9ZM143.4,119.1l-5.3-5.4h9.6c1.6,0,2.9-.4,3.7-1.1.8-.7,1.2-1.7,1.2-3s-.4-2.3-1.2-3c-.8-.7-2-1.1-3.7-1.1h-9.6l5.3-5.4v19.1ZM152.7,131.5l-8.7-12.9h12.6l8.8,12.9h-12.7Z"/>
  <path class="st0" d="M176.9,131.5v-26.1h-10.3v-9.2h32.6v9.2h-10.3v26.1h-11.9Z"/>
  <path class="st0" d="M219.2,132.3c-5.4,0-9.6-1.5-12.7-4.4s-4.5-7-4.5-12.3v-19.4h11.9v19.1c0,2.7.5,4.6,1.5,5.7,1,1.1,2.3,1.7,3.9,1.7s3-.6,4-1.7c1-1.1,1.4-3,1.4-5.7v-19.1h11.7v19.4c0,5.3-1.5,9.4-4.5,12.3s-7.2,4.4-12.7,4.4Z"/>
  <path class="st0" d="M242.4,131.5v-35.3h17c3.3,0,6.1.5,8.5,1.6,2.4,1.1,4.3,2.6,5.6,4.6,1.3,2,2,4.4,2,7.1s-.7,5.1-2,7.1c-1.3,2-3.2,3.5-5.6,4.6-2.4,1.1-5.3,1.6-8.5,1.6h-10.4l5.3-5.1v13.8h-11.9ZM254.3,119.1l-5.3-5.4h9.6c1.6,0,2.9-.4,3.7-1.1.8-.7,1.2-1.7,1.2-3s-.4-2.3-1.2-3c-.8-.7-2-1.1-3.7-1.1h-9.6l5.3-5.4v19.1Z"/>
  <path class="st0" d="M77.3,186.2l-11.3-35.3h12.3l9.1,29.8h-6.2l9.7-29.8h10.9l9,29.8h-5.9l9.5-29.8h11.3l-11.3,35.3h-12.8l-7.4-24.4h3.4l-7.8,24.4h-12.8Z"/>
  <path class="st0" d="M140.8,177.2h17.6v9h-29.3v-35.3h28.7v9h-17v17.3ZM139.9,164h15.7v8.6h-15.7v-8.6Z"/>
  <path class="st0" d="M175.3,177.2h17.6v9h-29.3v-35.3h28.7v9h-17v17.3ZM174.5,164h15.7v8.6h-15.7v-8.6Z"/>
  <path class="st0" d="M198.1,186.2v-35.3h11.7v35.3h-11.7ZM208.8,178.6l-.7-13.1,13.3-14.7h13l-14.9,16.4-6.6,6.8-4.1,4.5ZM221.3,186.2l-10.4-13.7,7.7-8.2,16.4,21.9h-13.8Z"/>
  <path class="st0" d="M46.8,219.8v-14.7h7.9c2,0,3.5.4,4.5,1.1s1.4,1.6,1.4,2.8-.2,1.4-.6,2c-.4.6-1,1-1.8,1.4-.8.3-1.8.5-2.9.5l.4-1.1c1.1,0,2.1.2,3,.5.8.3,1.5.8,1.9,1.4.5.6.7,1.3.7,2.2,0,1.3-.5,2.3-1.6,3-1.1.7-2.6,1.1-4.6,1.1h-8.3ZM51.7,216.3h3c.5,0,1,0,1.2-.3s.4-.5.4-.9-.1-.7-.4-.9-.7-.3-1.2-.3h-3.3v-3.3h2.6c.6,0,1,0,1.2-.3.3-.2.4-.5.4-.8s-.1-.6-.4-.8c-.3-.2-.7-.3-1.2-.3h-2.3v7.8Z"/>
  <path class="st0" d="M70.8,220.1c-1.2,0-2.3-.2-3.3-.6-1-.4-1.9-.9-2.6-1.6-.7-.7-1.3-1.5-1.7-2.4-.4-.9-.6-2-.6-3.1s.2-2.1.6-3.1c.4-.9,1-1.7,1.7-2.4.7-.7,1.6-1.2,2.6-1.6,1-.4,2.1-.6,3.3-.6s2.3.2,3.3.6,1.9.9,2.6,1.6c.7.7,1.3,1.5,1.7,2.4.4.9.6,2,.6,3.1s-.2,2.1-.6,3.1c-.4.9-1,1.8-1.7,2.4-.7.7-1.6,1.2-2.6,1.6-1,.4-2.1.6-3.3.6ZM70.8,216.1c.5,0,.9,0,1.3-.3.4-.2.7-.4,1.1-.7.3-.3.5-.7.7-1.2.2-.5.3-1,.3-1.5s0-1.1-.3-1.5c-.2-.5-.4-.8-.7-1.2-.3-.3-.7-.6-1.1-.7-.4-.2-.8-.3-1.3-.3s-.9,0-1.3.3c-.4.2-.7.4-1.1.7-.3.3-.5.7-.7,1.2-.2.5-.3,1-.3,1.5s0,1.1.3,1.5c.2.5.4.8.7,1.2.3.3.7.6,1.1.7.4.2.8.3,1.3.3Z"/>
  <path class="st0" d="M80.9,219.8v-14.7h4.1l7.5,8.9h-1.9v-8.9h4.8v14.7h-4.1l-7.5-8.9h1.9v8.9h-4.8Z"/>
  <path class="st0" d="M97.8,219.8v-14.7h4.1l7.5,8.9h-1.9v-8.9h4.8v14.7h-4.1l-7.5-8.9h1.9v8.9h-4.8Z"/>
  <path class="st0" d="M112.6,221.9l6.9-19.8h4.2l-6.9,19.8h-4.2Z"/>
  <path class="st0" d="M123.9,219.8v-14.7h7.1c1.4,0,2.6.2,3.6.7,1,.4,1.8,1.1,2.3,1.9.5.8.8,1.8.8,3s-.3,2.1-.8,2.9c-.5.8-1.3,1.4-2.3,1.9-1,.4-2.2.7-3.6.7h-4.3l2.2-2v5.7h-5ZM128.9,214.6l-2.2-2.2h4c.7,0,1.2-.2,1.5-.5.3-.3.5-.7.5-1.3s-.2-1-.5-1.3c-.3-.3-.8-.5-1.5-.5h-4l2.2-2.2v7.9ZM132.7,219.8l-3.6-5.4h5.3l3.7,5.4h-5.3Z"/>
  <path class="st0" d="M144.5,219.8h-5v-14.7h5v14.7ZM149.4,214.4h-5.3v-4.1h5.3v4.1ZM149.1,205.1h5v14.7h-5v-14.7Z"/>
  <path class="st0" d="M161.3,216h7.4v3.7h-12.2v-14.7h12v3.7h-7.1v7.2ZM161,210.5h6.6v3.6h-6.6v-3.6Z"/>
  <path class="st0" d="M170.6,219.8v-14.7h5v14.7h-5Z"/>
  <path class="st0" d="M178,219.8v-14.7h4.1l7.5,8.9h-1.9v-8.9h4.8v14.7h-4.1l-7.5-8.9h1.9v8.9h-4.8Z"/>
  <path class="st0" d="M194.8,214.1v-3.6h6.3v3.6h-6.3Z"/>
  <path class="st0" d="M208.9,220.1c-1.2,0-2.4-.1-3.6-.4-1.1-.3-2.1-.6-2.8-1.1l1.6-3.6c.7.4,1.5.7,2.3,1,.9.2,1.7.4,2.5.4s.9,0,1.1,0c.3,0,.5-.2.6-.3.1-.1.2-.3.2-.4,0-.3-.1-.5-.4-.6-.3-.2-.7-.3-1.2-.4-.5-.1-1-.2-1.6-.3-.6-.1-1.2-.3-1.7-.5-.6-.2-1.1-.5-1.6-.8-.5-.3-.9-.7-1.2-1.3s-.4-1.2-.4-2,.3-1.7.8-2.5c.5-.7,1.3-1.3,2.3-1.8,1-.4,2.3-.7,3.8-.7s2,.1,2.9.3,1.8.5,2.6,1l-1.5,3.6c-.7-.4-1.4-.6-2.1-.8-.7-.2-1.3-.3-2-.3s-.9,0-1.1.1c-.3,0-.5.2-.6.3-.1.1-.2.3-.2.5,0,.3.1.5.4.6.3.1.7.3,1.2.4.5,0,1,.2,1.6.3s1.2.3,1.7.5,1.1.5,1.6.8c.5.3.9.7,1.2,1.3.3.5.4,1.2.4,1.9s-.3,1.7-.8,2.5-1.3,1.4-2.3,1.8c-1,.5-2.3.7-3.8.7Z"/>
  <path class="st0" d="M217.3,219.8v-14.7h5v14.7h-5Z"/>
  <path class="st0" d="M229.5,216h7.4v3.7h-12.2v-14.7h12v3.7h-7.1v7.2ZM229.2,210.5h6.6v3.6h-6.6v-3.6Z"/>
  <path class="st0" d="M246.4,220.1c-1.2,0-2.3-.2-3.3-.6-1-.4-1.9-.9-2.6-1.6s-1.3-1.5-1.7-2.4c-.4-.9-.6-2-.6-3.1s.2-2.2.6-3.1c.4-.9,1-1.8,1.7-2.4.7-.7,1.6-1.2,2.6-1.6,1-.4,2.1-.6,3.4-.6s2.8.2,3.9.7c1.1.5,2.1,1.2,2.8,2.1l-3.2,2.8c-.5-.5-1-.9-1.5-1.2-.5-.3-1.1-.4-1.8-.4s-1,0-1.5.3c-.4.2-.8.4-1.1.7-.3.3-.5.7-.7,1.2-.2.4-.3,1-.3,1.5s0,1,.3,1.5c.2.5.4.8.7,1.2.3.3.7.6,1.1.7.4.2.9.3,1.4.3s1.1,0,1.6-.3c.5-.2,1.1-.5,1.7-1l2.8,3.4c-.9.6-1.9,1.1-3.1,1.4-1.1.3-2.3.5-3.3.5ZM248.5,217.6v-5.6h4.3v6.2l-4.3-.6Z"/>
</svg>