<svg xmlns="http://www.w3.org/2000/svg" viewBox="0 0 430.87 146.11"><defs><style>.cls-1{font-size:124.63px;}.cls-1,.cls-2,.cls-3{fill:#1d1d1b;}.cls-1,.cls-2{font-family:BaskOldFace, Baskerville Old Face;}.cls-2{font-size:49.2px;}.cls-4{fill:none;stroke:#1d1d1b;stroke-miterlimit:10;stroke-width:1.6px;}</style></defs><g id="Ebene_2" data-name="Ebene 2"><g id="Ebene_1-2" data-name="Ebene 1"><text class="cls-1" transform="translate(11.87 113.31)">V</text><text class="cls-2" transform="translate(101.41 42.5)">t</text><path class="cls-3" d="M168.45,30.67l-15.08,43.5h-5.25l-14.76-43.5h5.31l11.27,34.49a21.76,21.76,0,0,1,.82,3.85h.11a20,20,0,0,1,.94-3.91l11.5-34.43Z"></path><path class="cls-3" d="M217,74.17h-5.28L207.42,62H190.16l-4.06,12.2h-5.31l15.62-43.5h4.94ZM205.86,57.39l-6.39-18.53a20.4,20.4,0,0,1-.62-2.91h-.11a16.87,16.87,0,0,1-.66,2.91l-6.33,18.53Z"></path><path class="cls-3" d="M258.66,74.17H237.54V30.67h4.77V69.56h16.35Z"></path><path class="cls-3" d="M308.4,56.57q0,18.33-15.47,18.33-14.82,0-14.82-17.63V30.67h4.77V56.94q0,13.38,10.56,13.38,10.2,0,10.19-12.93V30.67h4.77Z"></path><path class="cls-3" d="M357.17,35.28H345.42V74.17h-4.77V35.28H328.93V30.67h28.24Z"></path><path class="cls-3" d="M382.86,74.17h-4.77V30.67h4.77Z"></path><path class="cls-3" d="M406.2,72.41v-6A10.46,10.46,0,0,0,408.51,68a17.52,17.52,0,0,0,2.84,1.23,21.67,21.67,0,0,0,3,.77,15,15,0,0,0,2.78.28q4.39,0,6.57-1.75a6,6,0,0,0,2.17-5,6.24,6.24,0,0,0-.72-3.06,8.41,8.41,0,0,0-2-2.38,19.51,19.51,0,0,0-3-2.07c-1.16-.65-2.41-1.35-3.76-2.07s-2.74-1.55-4-2.34A17.55,17.55,0,0,1,409.18,49,10.89,10.89,0,0,1,407,45.79a10.57,10.57,0,0,1-.78-4.23,10.47,10.47,0,0,1,1.22-5.18,10.86,10.86,0,0,1,3.21-3.62,13.94,13.94,0,0,1,4.52-2.12,19.31,19.31,0,0,1,5.18-.7c4,0,6.94.51,8.78,1.55v5.73a15.17,15.17,0,0,0-9.26-2.67,14.42,14.42,0,0,0-3.12.35A8.31,8.31,0,0,0,414,36a6.23,6.23,0,0,0-2,2,5.68,5.68,0,0,0-.77,3,6.66,6.66,0,0,0,.58,2.88,7,7,0,0,0,1.72,2.22,17.16,17.16,0,0,0,2.77,1.94c1.09.63,2.34,1.32,3.76,2.06s2.84,1.58,4.15,2.43a19.26,19.26,0,0,1,3.43,2.82A12.29,12.29,0,0,1,430,58.88a10.14,10.14,0,0,1,.87,4.31,11.45,11.45,0,0,1-1.18,5.44,10,10,0,0,1-3.18,3.63,13.48,13.48,0,0,1-4.61,2,24,24,0,0,1-5.51.62,21.3,21.3,0,0,1-2.38-.17c-.95-.11-1.92-.27-2.9-.48a24.81,24.81,0,0,1-2.8-.79A8.8,8.8,0,0,1,406.2,72.41Z"></path><path class="cls-3" d="M157.85,86.67h-8.28v25.66H146.2V86.67h-8.26v-3h19.91Z"></path><path class="cls-3" d="M177.9,112.33H162.69V83.62h14.57v3H166.05v9.55h10.37v3H166.05v10.05H177.9Z"></path><path class="cls-3" d="M203.29,111.13a16.82,16.82,0,0,1-7.92,1.68,12.76,12.76,0,0,1-9.81-3.94,14.54,14.54,0,0,1-3.69-10.35q0-6.88,4.15-11.13a14.05,14.05,0,0,1,10.51-4.25,16.93,16.93,0,0,1,6.76,1.18v3.59a13.66,13.66,0,0,0-6.8-1.72,10.45,10.45,0,0,0-8,3.3,12.43,12.43,0,0,0-3.07,8.83,11.84,11.84,0,0,0,2.87,8.36,9.79,9.79,0,0,0,7.54,3.11,14.11,14.11,0,0,0,7.48-1.92Z"></path><path class="cls-3" d="M231.05,112.33h-3.36V99.24H212.83v13.09h-3.36V83.62h3.36v12.6h14.86V83.62h3.36Z"></path><path class="cls-3" d="M262.05,112.33h-4.13L243.15,89.45a9.56,9.56,0,0,1-.92-1.8h-.12a30.78,30.78,0,0,1,.16,3.94v20.74H238.9V83.62h4.37l14.37,22.52c.6.94,1,1.58,1.16,1.93h.08a31.06,31.06,0,0,1-.2-4.23V83.62h3.37Z"></path><path class="cls-3" d="M281.47,112.81a12.61,12.61,0,0,1-9.78-4A14.94,14.94,0,0,1,268,98.32q0-6.93,3.74-11T282,83.14a12.31,12.31,0,0,1,9.58,4,15,15,0,0,1,3.64,10.47q0,7-3.73,11.11A12.83,12.83,0,0,1,281.47,112.81Zm.24-26.62a9.23,9.23,0,0,0-7.34,3.26A12.58,12.58,0,0,0,271.54,98a12.72,12.72,0,0,0,2.76,8.54,9,9,0,0,0,7.17,3.23,9.45,9.45,0,0,0,7.45-3.08q2.71-3.09,2.72-8.63T289,89.29A9.05,9.05,0,0,0,281.71,86.19Z"></path><path class="cls-3" d="M316,112.33H301.14V83.62h3.36v25.67H316Z"></path><path class="cls-3" d="M330.94,112.81a12.61,12.61,0,0,1-9.78-4,15,15,0,0,1-3.68-10.47q0-6.93,3.75-11t10.19-4.13a12.34,12.34,0,0,1,9.58,4,15,15,0,0,1,3.63,10.47q0,7-3.72,11.11A12.86,12.86,0,0,1,330.94,112.81Zm.24-26.62a9.24,9.24,0,0,0-7.35,3.26A12.63,12.63,0,0,0,321,98a12.72,12.72,0,0,0,2.75,8.54,9,9,0,0,0,7.18,3.23,9.42,9.42,0,0,0,7.44-3.08q2.73-3.09,2.73-8.63t-2.65-8.79A9,9,0,0,0,331.18,86.19Z"></path><path class="cls-3" d="M372.06,110.37a19.14,19.14,0,0,1-9.6,2.44,13.12,13.12,0,0,1-9.94-4q-3.79-4-3.8-10.49a14.92,14.92,0,0,1,4.22-10.94,14.35,14.35,0,0,1,10.68-4.28,18.21,18.21,0,0,1,7.86,1.52v3.73a15.07,15.07,0,0,0-8.24-2.2,10.28,10.28,0,0,0-7.91,3.32,12.12,12.12,0,0,0-3.08,8.61q0,5.44,2.86,8.56a10.05,10.05,0,0,0,7.76,3.11,12,12,0,0,0,5.83-1.34v-8h-6.29v-3h9.65Z"></path><path class="cls-3" d="M382.42,112.33h-3.36V83.62h3.36Z"></path><path class="cls-3" d="M405.51,112.33H390.3V83.62h14.57v3H393.66v9.55H404v3H393.66v10.05h11.85Z"></path><path class="cls-3" d="M410,111.17v-4a7.77,7.77,0,0,0,1.64,1.08,13.07,13.07,0,0,0,2,.81,15.8,15.8,0,0,0,2.11.51,11.8,11.8,0,0,0,2,.18,7.77,7.77,0,0,0,4.64-1.15,4.33,4.33,0,0,0,1-5.34,5.75,5.75,0,0,0-1.41-1.57,14.64,14.64,0,0,0-2.14-1.36c-.82-.43-1.7-.89-2.65-1.37s-1.93-1-2.8-1.54a11.92,11.92,0,0,1-2.26-1.73,7.1,7.1,0,0,1-1.52-2.13,6.67,6.67,0,0,1-.55-2.79,6.57,6.57,0,0,1,.86-3.41,7.44,7.44,0,0,1,2.27-2.4,10.48,10.48,0,0,1,3.19-1.4,14.9,14.9,0,0,1,3.65-.46,14,14,0,0,1,6.19,1V88a11.19,11.19,0,0,0-6.53-1.76,10.28,10.28,0,0,0-2.2.23,6.06,6.06,0,0,0-2,.75,4.27,4.27,0,0,0-1.4,1.34,3.53,3.53,0,0,0-.54,2,4,4,0,0,0,.41,1.9,4.46,4.46,0,0,0,1.21,1.46,11.56,11.56,0,0,0,2,1.28c.77.42,1.65.87,2.65,1.37s2,1,2.93,1.6a13.58,13.58,0,0,1,2.42,1.86,8.35,8.35,0,0,1,1.65,2.26,6.34,6.34,0,0,1,.61,2.84,7.26,7.26,0,0,1-.83,3.6,6.75,6.75,0,0,1-2.24,2.39,9.81,9.81,0,0,1-3.26,1.33,18,18,0,0,1-3.88.41c-.45,0-1,0-1.68-.11s-1.35-.18-2-.32a15.72,15.72,0,0,1-2-.52A6.42,6.42,0,0,1,410,111.17Z"></path><rect class="cls-4" x="0.8" y="0.8" width="117.71" height="131.29" rx="10"></rect></g></g></svg>